<svg width="21" height="20" viewBox="0 0 21 20" fill="none" xmlns="http://www.w3.org/2000/svg">
<path d="M3.42951 14.4628H16.8657C19.1489 14.4628 20.9999 12.6118 20.9999 10.3286C20.9999 8.38945 19.6649 6.76216 17.8638 6.31565C17.8872 6.10619 17.8992 5.89328 17.8992 5.67757C17.8992 2.53809 15.3542 -0.00695801 12.2147 -0.00695801C9.61073 -0.00695801 7.41569 1.74391 6.74263 4.13261C6.67226 4.12905 6.60142 4.12725 6.53017 4.12725C4.24691 4.12725 2.39596 5.97819 2.39596 8.26145C2.39596 8.32013 2.39718 8.37852 2.3996 8.4366C1.19341 8.86122 0.328857 10.0107 0.328857 11.3621C0.328857 13.0746 1.71707 14.4628 3.42951 14.4628Z" fill="white" fill-opacity="0.6"/>
<path d="M5.92511 15.4963C5.6625 15.4963 5.42243 15.6447 5.30498 15.8796L3.93121 18.6271C3.70071 19.0881 4.03593 19.6305 4.55134 19.6305C4.81395 19.6305 5.05403 19.4821 5.17147 19.2473L6.54525 16.4997C6.77574 16.0387 6.44052 15.4963 5.92511 15.4963Z" fill="white" fill-opacity="0.6"/>
<path d="M9.02577 15.4963C9.54118 15.4963 9.8764 16.0387 9.6459 16.4997L8.27212 19.2473C8.15468 19.4821 7.91461 19.6305 7.65199 19.6305C7.13659 19.6305 6.80137 19.0881 7.03186 18.6271L8.40564 15.8796C8.52308 15.6447 8.76316 15.4963 9.02577 15.4963Z" fill="white" fill-opacity="0.6"/>
<path d="M15.2271 15.4963C15.7425 15.4963 16.0777 16.0387 15.8472 16.4997L14.4734 19.2473C14.356 19.4821 14.1159 19.6305 13.8533 19.6305C13.3379 19.6305 13.0027 19.0881 13.2332 18.6271L14.6069 15.8796C14.7244 15.6447 14.9645 15.4963 15.2271 15.4963Z" fill="white" fill-opacity="0.6"/>
<path d="M12.1264 15.4963C12.6418 15.4963 12.9771 16.0387 12.7466 16.4997L11.3728 19.2473C11.2553 19.4821 11.0153 19.6305 10.7526 19.6305C10.2372 19.6305 9.90202 19.0881 10.1325 18.6271L11.5063 15.8796C11.6237 15.6447 11.8638 15.4963 12.1264 15.4963Z" fill="white" fill-opacity="0.6"/>
</svg>
