<svg width="168" height="159" viewBox="0 0 168 159" fill="none" xmlns="http://www.w3.org/2000/svg">
<path d="M109.074 116.667H134C152.41 116.667 167.333 101.743 167.333 83.3333C167.333 67.6986 156.569 54.5781 142.048 50.978C142.237 49.2891 142.333 47.5725 142.333 45.8333C142.333 20.5202 121.813 -6.10352e-05 96.5001 -6.10352e-05C75.5047 -6.10352e-05 57.8066 14.1169 52.3798 33.3765C51.8124 33.3478 51.2413 33.3333 50.6667 33.3333C32.2573 33.3333 17.3334 48.2571 17.3334 66.6666C17.3334 67.1397 17.3433 67.6105 17.3628 68.0788C7.6375 71.5025 0.666748 80.7705 0.666748 91.6666C0.666748 105.474 11.8596 116.667 25.6667 116.667H49.4022L85.0981 54.1988C89.3378 46.7792 100.667 49.7877 100.667 58.3333V91.6666H109C115.399 91.6666 119.41 98.579 116.235 104.134L109.074 116.667Z" fill="white"/>
<path d="M59.0001 116.667L92.3334 58.3333V99.9999H109L75.6667 158.333V116.667H59.0001Z" fill="white"/>
</svg>
